<svg width="64" height="64" viewBox="0 0 64 64" fill="none" xmlns="http://www.w3.org/2000/svg">
<rect width="64" height="64" rx="20" fill="#E8F2FF"/>
<rect width="64" height="64" rx="20" fill="#F8F9FD"/>
<path d="M41.5336 28.9071C41.5336 23.6571 37.25 19.3735 32 19.3735C26.75 19.3735 22.4664 23.6571 22.4664 28.9071C22.4664 29.6635 22.5501 30.4198 22.7601 31.1744C23.0128 32.3918 23.4738 33.1481 24.1038 34.1981C24.2301 34.4508 24.3974 34.7018 24.5664 34.9954C24.7764 35.3318 24.9438 35.6681 25.1538 35.9618C25.9938 37.3481 26.4974 38.1454 26.4974 39.7844V43.7318C26.4974 44.7391 27.2111 45.5381 28.1774 45.7054C28.5974 47.8481 29.8574 49.1918 32.0001 49.1918C34.1428 49.1918 35.4438 47.8481 35.8228 45.7054C36.7891 45.5381 37.5028 44.6981 37.5028 43.7318V39.7844C37.5028 38.1471 38.0064 37.3071 38.8464 35.9618C39.0138 35.6681 39.2238 35.3318 39.4338 34.9954C39.6011 34.7018 39.7701 34.4491 39.8964 34.1981C40.5264 33.1481 40.9891 32.3918 41.2401 31.1744C41.4501 30.4197 41.5338 29.6634 41.5338 28.9071H41.5336ZM35.8636 40.7935H28.22V39.8272C28.22 39.6172 28.22 39.4499 28.1774 39.2809H35.8638C35.8638 39.4482 35.8211 39.6172 35.8211 39.8272L35.8228 40.7935H35.8636ZM35.4862 44.1125H28.5134C28.3034 44.1125 28.1771 43.9452 28.1771 43.7762V42.4735H35.8207V43.7762C35.8633 43.9435 35.696 44.1125 35.486 44.1125H35.4862ZM31.9999 47.5562C31.5372 47.5562 30.3626 47.5562 29.8999 45.7925H34.1428C33.6801 47.5562 32.4628 47.5562 32.0001 47.5562H31.9999ZM39.6028 30.8397C39.3927 31.7634 39.0564 32.3934 38.4691 33.3597C38.3017 33.6124 38.1754 33.8634 38.0064 34.1571C37.7964 34.4934 37.6291 34.8297 37.4601 35.0807C36.9564 35.9207 36.4937 36.6771 36.2001 37.5581H27.8837C27.59 36.6754 27.17 35.9207 26.6237 35.0807C26.4563 34.7871 26.2463 34.4934 26.0773 34.1571C25.91 33.8634 25.741 33.5697 25.6147 33.3597C25.0273 32.3524 24.691 31.7634 24.481 30.7971C24.3136 30.1671 24.2283 29.5371 24.2283 28.9071C24.2283 24.5807 27.7557 21.0535 32.0819 21.0535C36.4083 21.0535 39.9355 24.5808 39.9355 28.9071C39.8535 29.5371 39.7698 30.1671 39.6024 30.8397H39.6028Z" fill="#4F46BA"/>
<path d="M49.3035 28.0671H45.8172C45.3545 28.0671 44.9772 28.4445 44.9772 28.9071C44.9772 29.3698 45.3545 29.7471 45.8172 29.7471H49.3035C49.7662 29.7471 50.1435 29.3698 50.1435 28.9071C50.1435 28.4461 49.7662 28.0671 49.3035 28.0671Z" fill="#4F46BA"/>
<path d="M41.7436 20.0035C41.9536 20.0035 42.1636 19.9199 42.3309 19.7509L44.8082 17.2736C45.1446 16.9372 45.1446 16.4336 44.8082 16.0972C44.4719 15.7609 43.9683 15.7609 43.6319 16.0972L41.1546 18.5745C40.8183 18.9109 40.8183 19.4145 41.1546 19.7509C41.3236 19.9199 41.5336 20.0035 41.7436 20.0035H41.7436Z" fill="#4F46BA"/>
<path d="M31.9999 15.93C32.4626 15.93 32.8399 15.5527 32.8399 15.09V11.6037C32.8399 11.141 32.4626 10.7637 31.9999 10.7637C31.5373 10.7637 31.1599 11.141 31.1599 11.6037V15.09C31.1599 15.5527 31.5373 15.93 31.9999 15.93Z" fill="#4F46BA"/>
<path d="M21.6672 19.7528C21.8345 19.9202 22.0445 20.0055 22.2545 20.0055C22.4645 20.0055 22.6745 19.9218 22.8418 19.7528C23.1782 19.4165 23.1782 18.9128 22.8418 18.5765L20.3645 16.0992C20.0282 15.7628 19.5245 15.7628 19.1882 16.0992C18.8518 16.4355 18.8518 16.9392 19.1882 17.2755L21.6672 19.7528Z" fill="#4F46BA"/>
<path d="M18.2236 28.0671H14.7372C14.2745 28.0671 13.8972 28.4445 13.8972 28.9071C13.8972 29.3698 14.2746 29.7471 14.7372 29.7471H18.2236C18.6862 29.7471 19.0636 29.3698 19.0636 28.9071C19.0636 28.4461 18.6862 28.0671 18.2236 28.0671Z" fill="#4F46BA"/>
<path d="M21.6671 38.0636L19.1897 40.541C18.8534 40.8773 18.8534 41.381 19.1897 41.7173C19.3571 41.8847 19.5671 41.97 19.7771 41.97C19.9871 41.97 20.1971 41.8863 20.3644 41.7173L22.8417 39.24C23.1781 38.9037 23.1781 38.4 22.8417 38.0636C22.507 37.7273 21.9623 37.7273 21.667 38.0636H21.6671Z" fill="#4F46BA"/>
<path d="M42.3328 38.0636C41.9964 37.7273 41.4928 37.7273 41.1564 38.0636C40.8201 38.4 40.8201 38.9036 41.1564 39.24L43.6337 41.7173C43.8011 41.8847 44.0111 41.97 44.2211 41.97C44.4311 41.97 44.6411 41.8863 44.8084 41.7173C45.1447 41.381 45.1447 40.8773 44.8084 40.541L42.3328 38.0636Z" fill="#4F46BA"/>
</svg>
